<svg xmlns="http://www.w3.org/2000/svg" data-name="02 Innovation" viewBox="0 0 64 80" x="0px" y="0px"><path d="M58.522,45.035l-7.618-2.77-.683-4.778c1.708-1.639,2.778-3.938,2.778-6.487v-7.09c2.833-.479,5-2.942,5-5.91v-4c0-.552-.448-1-1-1h-16c-3.309,0-6,2.691-6,6v12c0,2.548,1.07,4.848,2.778,6.487l-.645,4.513h-10.133V23c0-1.654-1.346-3-3-3s-3,1.346-3,3v3h-3c-1.654,0-3,1.346-3,3v5c0,.265,.105,.52,.293,.707l1.707,1.707v11.586c0,2.757,2.243,5,5,5h8v10c0,.552,.448,1,1,1h30c.552,0,1-.448,1-1v-13c0-2.074-1.527-4.254-3.478-4.965Zm-21.522-26.035c0-2.206,1.794-4,4-4h15v3c0,2.206-1.794,4-4,4h-15v-3Zm0,12v-7h14v7c0,3.86-3.14,7-7,7s-7-3.14-7-7Zm11.931,11.589l-4.931,4.109-4.931-4.109,.535-3.744c1.302,.732,2.8,1.155,4.397,1.155s3.095-.422,4.396-1.155l.535,3.744Zm-30.517-7.589l-1.414-1.414v-4.586c0-.551,.449-1,1-1h4c.552,0,1-.448,1-1v-4c0-.551,.449-1,1-1s1,.449,1,1v12h-6.586Zm41.586,27h-4v-4c0-.552-.448-1-1-1s-1,.448-1,1v4h-22v-10c0-.552-.448-1-1-1h-9c-1.654,0-3-1.346-3-3v-11h6v6c0,.552,.448,1,1,1h11.638l5.722,4.768c.185,.155,.413,.232,.64,.232s.455-.077,.64-.232l5.558-4.632,7.642,2.779c1.151,.419,2.16,1.861,2.16,3.085v12Z"/><path d="M16,22.001v-4.001c0-.687,.687-1.671,1.415-2.714,1.151-1.649,2.585-3.701,2.585-6.287C20,4.037,15.962,0,11,0S2,4.037,2,8.999c0,2.531,1.387,4.48,2.501,6.045,.804,1.13,1.499,2.106,1.499,2.956v4.001c0,1.654,1.346,3,3,3h4c1.654,0,3-1.346,3-3Zm-2,0c0,.551-.449,1-1,1h-4c-.551,0-1-.449-1-1v-2h6v2Zm-2-4.001v-4.586l1.707-1.707c.391-.39,.391-1.023,0-1.414-.391-.391-1.023-.391-1.414,0l-1.293,1.292-1.293-1.292c-.391-.391-1.023-.391-1.414,0-.391,.391-.391,1.024,0,1.414l1.707,1.707v4.586h-2c0-1.49-.908-2.765-1.869-4.116-1.048-1.472-2.131-2.993-2.131-4.885,0-3.86,3.14-7,7-7s7,3.141,7,7.001c0,1.956-1.182,3.648-2.224,5.141-.913,1.308-1.776,2.543-1.776,3.859h-2Z"/><text x="0" y="79" fill="#000000" font-size="5px" font-weight="bold" font-family="'Helvetica Neue', Helvetica, Arial-Unicode, Arial, Sans-serif">Created by Berkah Icon</text><text x="0" y="84" fill="#000000" font-size="5px" font-weight="bold" font-family="'Helvetica Neue', Helvetica, Arial-Unicode, Arial, Sans-serif">from the Noun Project</text></svg>